<svg id="svg" version="1.1" xmlns="http://www.w3.org/2000/svg" xmlns:xlink="http://www.w3.org/1999/xlink" width="400" height="400" viewBox="0, 0, 400,400"><g id="svgg"><path id="path0" d="M372.201 12.814 C 283.598 21.768,218.737 60.699,150.291 146.008 C 146.602 150.606,146.590 150.618,145.564 150.425 C 129.711 147.451,105.768 147.583,93.484 150.712 C 65.671 157.797,40.594 194.103,16.785 261.758 C 12.573 273.726,13.009 277.302,19.059 280.388 C 23.033 282.415,21.401 282.830,54.178 271.444 L 82.662 261.548 112.931 290.833 C 129.579 306.939,144.315 321.220,145.677 322.568 L 148.153 325.019 139.929 351.465 C 130.024 383.319,130.438 381.515,132.146 385.321 C 134.856 391.363,139.474 391.970,150.413 387.721 C 213.928 363.056,250.528 337.308,258.437 311.729 C 262.431 298.810,262.358 275.759,258.259 255.009 L 257.786 252.618 258.810 251.703 C 259.373 251.200,262.329 248.615,265.379 245.958 C 344.634 176.906,380.857 111.366,386.193 27.360 C 386.955 15.362,383.414 11.681,372.201 12.814 M366.937 32.983 C 366.863 41.182,362.535 65.895,358.769 79.630 C 342.389 139.370,306.523 187.773,234.335 247.562 C 225.416 254.948,219.691 259.539,176.582 293.871 L 158.334 308.404 157.547 307.696 C 157.115 307.306,143.837 294.493,128.042 279.222 C 112.247 263.950,98.888 251.035,98.356 250.521 L 97.389 249.587 100.019 245.980 C 101.466 243.997,109.603 232.705,118.101 220.887 C 146.682 181.143,158.881 164.926,172.018 149.211 C 232.092 77.347,287.943 43.204,362.434 32.804 C 365.794 32.335,366.943 32.380,366.937 32.983 M309.091 58.478 C 288.193 63.084,280.412 88.977,295.417 103.982 C 312.438 121.003,341.323 108.946,341.494 84.748 C 341.615 67.709,325.711 54.816,309.091 58.478 M318.035 67.454 C 330.307 69.642,336.290 83.896,329.379 94.483 C 321.996 105.792,305.104 105.282,298.947 93.564 C 291.966 80.280,303.267 64.821,318.035 67.454 M265.364 104.133 C 244.109 108.430,235.914 134.648,251.084 149.818 C 268.443 167.177,298.156 153.908,297.141 129.248 C 296.464 112.804,281.392 100.892,265.364 104.133 M275.049 113.467 C 282.506 115.271,288.006 122.470,288.006 130.428 C 288.006 146.323,268.823 154.422,257.675 143.234 C 244.984 130.500,257.415 109.202,275.049 113.467 M220.989 150.407 C 199.317 154.340,190.865 180.647,206.311 196.093 C 222.831 212.613,251.003 201.667,252.334 178.212 C 253.306 161.067,237.841 147.349,220.989 150.407 M229.871 159.741 C 242.035 162.608,247.139 177.453,239.466 187.644 C 231.709 197.946,215.591 196.808,209.696 185.544 C 202.599 171.983,214.926 156.218,229.871 159.741 M128.174 167.440 C 130.819 167.631,133.032 167.827,133.092 167.875 C 133.172 167.939,81.925 239.212,79.583 242.292 C 79.173 242.832,39.178 256.859,38.885 256.566 C 38.446 256.127,46.985 235.395,51.969 224.798 C 66.222 194.493,82.809 173.764,96.168 169.560 C 103.374 167.293,115.265 166.505,128.174 167.440 M241.747 272.589 C 243.580 288.855,242.588 302.475,239.057 309.542 C 233.403 320.854,216.620 334.914,193.839 347.423 C 184.002 352.824,156.014 365.881,155.460 365.327 C 155.417 365.284,158.253 356.036,161.763 344.776 L 168.144 324.303 204.626 296.179 C 224.691 280.710,241.140 268.092,241.181 268.137 C 241.221 268.182,241.476 270.186,241.747 272.589 " stroke="none" fill="#040404" fill-rule="evenodd"></path><path id="path1" d="M364.989 32.661 C 289.966 42.126,231.750 77.396,171.870 149.662 C 157.539 166.958,147.052 180.836,122.366 215.174 C 116.007 224.018,107.836 235.363,104.208 240.385 L 97.610 249.514 98.467 250.366 C 98.938 250.835,112.577 264.051,128.775 279.735 L 158.227 308.252 159.950 306.930 C 160.897 306.203,168.821 299.900,177.558 292.924 C 186.295 285.948,200.603 274.541,209.353 267.576 C 256.457 230.081,282.674 205.901,304.452 179.865 C 340.550 136.709,360.141 92.345,366.028 40.421 C 366.748 34.070,366.797 32.438,366.266 32.502 C 366.059 32.527,365.485 32.598,364.989 32.661 M322.014 58.753 C 346.551 65.855,348.636 99.531,325.176 109.834 C 307.307 117.681,287.484 104.642,287.498 85.049 C 287.507 71.105,296.814 60.633,311.645 57.880 C 313.654 57.507,319.371 57.989,322.014 58.753 M310.719 67.775 C 297.174 71.064,292.365 87.775,302.160 97.520 C 313.191 108.495,332.098 100.336,332.078 84.610 C 332.063 73.373,321.607 65.132,310.719 67.775 M277.030 104.283 C 293.596 108.266,302.203 126.841,294.665 142.345 C 286.387 159.374,263.732 163.129,250.769 149.620 C 231.972 130.032,250.571 97.921,277.030 104.283 M266.717 113.444 C 252.997 116.477,248.031 133.416,257.949 143.350 C 267.553 152.969,284.457 147.693,287.474 134.136 C 290.224 121.773,279.119 110.702,266.717 113.444 M233.519 151.025 C 251.823 156.733,258.532 178.879,246.495 193.863 C 232.101 211.783,203.417 205.097,198.778 182.740 C 194.627 162.733,214.089 144.966,233.519 151.025 M222.920 159.587 C 208.738 161.807,202.819 179.339,212.815 189.516 C 223.692 200.590,242.897 192.523,242.944 176.860 C 242.977 166.048,233.557 157.922,222.920 159.587 M109.591 167.420 C 97.875 168.212,92.085 170.329,85.033 176.400 C 71.961 187.652,59.338 207.549,46.849 236.588 C 44.426 242.221,41.709 248.949,39.511 254.757 L 38.805 256.621 44.872 254.529 C 48.209 253.378,57.295 250.229,65.064 247.533 L 79.188 242.630 106.038 205.387 L 132.888 168.145 131.733 167.951 C 127.573 167.252,116.136 166.977,109.591 167.420 M204.677 296.331 C 184.770 311.683,168.386 324.418,168.269 324.631 C 167.910 325.283,155.639 364.905,155.758 365.024 C 155.892 365.158,165.044 361.274,171.751 358.236 C 210.269 340.789,235.989 320.967,240.556 305.206 C 242.713 297.763,243.059 272.579,241.056 268.769 C 240.942 268.552,227.013 279.105,204.677 296.331 " stroke="none" fill="#fbfbfb" fill-rule="evenodd"></path><path id="path2" d="M287.373 83.847 C 287.373 84.425,287.434 84.662,287.510 84.373 C 287.586 84.083,287.586 83.610,287.510 83.321 C 287.434 83.032,287.373 83.268,287.373 83.847 M332.171 84.748 C 332.171 85.657,332.228 86.029,332.296 85.575 C 332.365 85.120,332.365 84.376,332.296 83.922 C 332.228 83.467,332.171 83.839,332.171 84.748 M271.003 103.593 C 271.377 103.665,271.918 103.663,272.205 103.587 C 272.492 103.512,272.186 103.453,271.525 103.457 C 270.864 103.460,270.629 103.522,271.003 103.593 M204.203 113.974 L 200.000 118.257 204.282 114.054 C 208.261 110.149,208.701 109.692,208.486 109.692 C 208.442 109.692,206.515 111.619,204.203 113.974 M198.331 119.835 L 197.295 120.962 198.422 119.926 C 199.471 118.962,199.687 118.708,199.458 118.708 C 199.408 118.708,198.901 119.215,198.331 119.835 M192.468 125.995 L 191.585 126.972 192.562 126.090 C 193.099 125.604,193.539 125.165,193.539 125.113 C 193.539 124.881,193.291 125.085,192.468 125.995 M268.745 148.366 C 269.035 148.442,269.508 148.442,269.797 148.366 C 270.086 148.291,269.850 148.229,269.271 148.229 C 268.693 148.229,268.456 148.291,268.745 148.366 M111.570 167.300 C 111.860 167.375,112.333 167.375,112.622 167.300 C 112.911 167.224,112.675 167.162,112.096 167.162 C 111.518 167.162,111.281 167.224,111.570 167.300 M122.242 167.305 C 122.616 167.377,123.157 167.374,123.445 167.299 C 123.732 167.224,123.426 167.165,122.765 167.168 C 122.104 167.172,121.869 167.233,122.242 167.305 M79.478 181.593 L 77.986 183.171 79.564 181.679 C 80.432 180.859,81.142 180.149,81.142 180.101 C 81.142 179.877,80.864 180.127,79.478 181.593 M288.636 197.521 L 287.754 198.497 288.730 197.615 C 289.267 197.129,289.707 196.690,289.707 196.638 C 289.707 196.406,289.459 196.610,288.636 197.521 M224.869 204.264 C 225.158 204.340,225.631 204.340,225.920 204.264 C 226.210 204.189,225.973 204.127,225.394 204.127 C 224.816 204.127,224.579 204.189,224.869 204.264 M271.511 214.651 L 270.323 215.928 271.600 214.740 C 272.788 213.635,273.016 213.373,272.788 213.373 C 272.739 213.373,272.164 213.948,271.511 214.651 M104.270 256.123 C 105.515 257.450,105.785 257.689,105.785 257.463 C 105.785 257.415,105.143 256.772,104.358 256.036 L 102.930 254.696 104.270 256.123 M113.749 265.364 C 114.563 266.191,115.297 266.867,115.379 266.867 C 115.462 266.867,114.864 266.191,114.050 265.364 C 113.236 264.538,112.502 263.862,112.419 263.862 C 112.337 263.862,112.935 264.538,113.749 265.364 M123.366 274.681 C 124.180 275.507,124.914 276.183,124.996 276.183 C 125.079 276.183,124.480 275.507,123.666 274.681 C 122.852 273.854,122.119 273.178,122.036 273.178 C 121.953 273.178,122.552 273.854,123.366 274.681 M132.682 283.696 C 133.496 284.523,134.230 285.199,134.312 285.199 C 134.395 285.199,133.797 284.523,132.983 283.696 C 132.169 282.870,131.435 282.194,131.352 282.194 C 131.270 282.194,131.868 282.870,132.682 283.696 M142.299 293.013 C 143.113 293.839,143.847 294.515,143.929 294.515 C 144.012 294.515,143.414 293.839,142.600 293.013 C 141.786 292.186,141.052 291.510,140.969 291.510 C 140.887 291.510,141.485 292.186,142.299 293.013 M151.753 302.104 C 152.998 303.431,153.268 303.669,153.268 303.443 C 153.268 303.395,152.626 302.753,151.841 302.016 L 150.413 300.676 151.753 302.104 " stroke="none" fill="#9f9f9f" fill-rule="evenodd"></path><path id="path3" d="M313.974 57.913 C 314.346 57.985,314.955 57.985,315.327 57.913 C 315.699 57.841,315.394 57.783,314.651 57.783 C 313.907 57.783,313.603 57.841,313.974 57.913 M314.129 67.233 C 314.586 67.302,315.262 67.300,315.631 67.229 C 316.001 67.157,315.627 67.101,314.801 67.103 C 313.974 67.105,313.672 67.164,314.129 67.233 M300.826 96.563 C 300.826 96.615,301.266 97.054,301.803 97.540 L 302.780 98.422 301.897 97.446 C 301.074 96.535,300.826 96.331,300.826 96.563 M312.322 112.003 C 312.611 112.078,313.084 112.078,313.373 112.003 C 313.663 111.927,313.426 111.865,312.847 111.865 C 312.269 111.865,312.032 111.927,312.322 112.003 M196.074 122.089 L 195.192 123.065 196.168 122.183 C 196.705 121.697,197.145 121.258,197.145 121.206 C 197.145 120.974,196.897 121.178,196.074 122.089 M287.986 130.428 C 287.986 131.172,288.044 131.476,288.116 131.104 C 288.188 130.733,288.188 130.124,288.116 129.752 C 288.044 129.380,287.986 129.684,287.986 130.428 M237.547 189.707 L 236.664 190.684 237.641 189.801 C 238.178 189.316,238.618 188.876,238.618 188.824 C 238.618 188.592,238.370 188.797,237.547 189.707 M205.259 195.436 C 205.259 195.488,205.699 195.927,206.236 196.413 L 207.213 197.295 206.330 196.319 C 205.507 195.408,205.259 195.204,205.259 195.436 M280.688 205.785 L 275.131 211.420 280.766 205.863 C 283.866 202.807,286.401 200.271,286.401 200.228 C 286.401 200.015,285.851 200.550,280.688 205.785 M269.102 217.055 L 268.219 218.032 269.196 217.149 C 269.733 216.663,270.173 216.224,270.173 216.172 C 270.173 215.940,269.925 216.144,269.102 217.055 M98.422 250.639 C 99.068 251.300,99.664 251.841,99.746 251.841 C 99.829 251.841,99.368 251.300,98.723 250.639 C 98.077 249.977,97.481 249.437,97.399 249.437 C 97.316 249.437,97.777 249.977,98.422 250.639 M107.876 259.730 C 109.122 261.056,109.391 261.295,109.391 261.069 C 109.391 261.021,108.749 260.379,107.964 259.642 L 106.536 258.302 107.876 259.730 M117.355 268.971 C 118.001 269.632,118.597 270.173,118.679 270.173 C 118.762 270.173,118.302 269.632,117.656 268.971 C 117.010 268.310,116.414 267.769,116.332 267.769 C 116.249 267.769,116.710 268.310,117.355 268.971 M126.809 278.062 C 128.055 279.388,128.325 279.627,128.325 279.401 C 128.325 279.353,127.682 278.711,126.897 277.974 L 125.470 276.634 126.809 278.062 M242.610 287.153 C 242.613 287.979,242.671 288.281,242.740 287.825 C 242.809 287.368,242.807 286.692,242.736 286.322 C 242.665 285.952,242.608 286.326,242.610 287.153 M136.426 287.378 C 137.672 288.705,137.941 288.943,137.941 288.718 C 137.941 288.669,137.299 288.027,136.514 287.290 L 135.086 285.950 136.426 287.378 M145.743 296.394 C 146.988 297.721,147.258 297.959,147.258 297.733 C 147.258 297.685,146.615 297.043,145.830 296.306 L 144.403 294.966 145.743 296.394 M155.359 305.710 C 156.096 306.495,156.739 307.137,156.787 307.137 C 157.013 307.137,156.774 306.868,155.447 305.622 L 154.020 304.282 155.359 305.710 M228.238 323.140 L 226.747 324.718 228.325 323.227 C 229.791 321.841,230.040 321.563,229.816 321.563 C 229.768 321.563,229.058 322.273,228.238 323.140 " stroke="none" fill="#747474" fill-rule="evenodd"></path><path id="path4" d="" stroke="none" fill="#7c7c7c" fill-rule="evenodd"></path></g></svg>